# 3ds Max Wavefront OBJ Exporter v0.97b - (c)2007 guruware
# File Created: 27.03.2014 21:32:15

#
# object Box001
#

v  -0.5000 -0.5000 0.0000
v  -0.5000 -0.0500 0.0000
v  -0.0500 -0.0500 0.0000
v  -0.0500 -0.5000 0.0000
v  -0.0500 -0.4300 0.0700
v  -0.0500 -0.0500 0.0700
v  0.0500 -0.0500 0.0700
v  0.0500 -0.4300 0.0700
v  0.0500 -0.5000 0.0000
v  0.0500 -0.0500 0.0000
v  0.5000 -0.0500 0.0000
v  0.5000 -0.5000 0.0000
v  -0.4300 -0.0500 0.0700
v  -0.4300 0.0500 0.0700
v  -0.0500 0.0500 0.0700
v  0.0500 0.0500 0.0700
v  0.4300 0.0500 0.0700
v  0.4300 -0.0500 0.0700
v  -0.5000 0.0500 0.0000
v  -0.5000 0.5000 0.0000
v  -0.0500 0.5000 0.0000
v  -0.0500 0.0500 0.0000
v  -0.0500 0.4300 0.0700
v  0.0500 0.4300 0.0700
v  0.0500 0.0500 0.0000
v  0.0500 0.5000 0.0000
v  0.5000 0.5000 0.0000
v  0.5000 0.0500 0.0000
v  -0.5000 -0.5000 1.0000
v  -0.0500 -0.5000 1.0000
v  -0.0500 -0.0500 1.0000
v  -0.5000 -0.0500 1.0000
v  -0.0500 -0.4300 0.9300
v  0.0500 -0.4300 0.9300
v  0.0500 -0.0500 0.9300
v  -0.0500 -0.0500 0.9300
v  0.0500 -0.5000 1.0000
v  0.5000 -0.5000 1.0000
v  0.5000 -0.0500 1.0000
v  0.0500 -0.0500 1.0000
v  -0.4300 -0.0500 0.9300
v  -0.0500 0.0500 0.9300
v  -0.4300 0.0500 0.9300
v  0.0500 0.0500 0.9300
v  0.4300 -0.0500 0.9300
v  0.4300 0.0500 0.9300
v  -0.5000 0.0500 1.0000
v  -0.0500 0.0500 1.0000
v  -0.0500 0.5000 1.0000
v  -0.5000 0.5000 1.0000
v  0.0500 0.4300 0.9300
v  -0.0500 0.4300 0.9300
v  0.0500 0.0500 1.0000
v  0.5000 0.0500 1.0000
v  0.5000 0.5000 1.0000
v  0.0500 0.5000 1.0000
v  -0.0500 -0.5000 0.4500
v  -0.5000 -0.5000 0.4500
v  0.0500 -0.4300 0.4500
v  -0.0500 -0.4300 0.4500
v  0.5000 -0.5000 0.4500
v  0.0500 -0.5000 0.4500
v  -0.4300 -0.4300 0.4500
v  -0.0500 -0.4300 0.5500
v  -0.4300 -0.4300 0.5500
v  0.0500 -0.4300 0.5500
v  0.4300 -0.4300 0.4500
v  0.4300 -0.4300 0.5500
v  -0.5000 -0.5000 0.5500
v  -0.0500 -0.5000 0.5500
v  0.0500 -0.5000 0.5500
v  0.5000 -0.5000 0.5500
v  0.5000 -0.0500 0.4500
v  0.4300 0.0500 0.4500
v  0.4300 -0.0500 0.4500
v  0.5000 0.5000 0.4500
v  0.5000 0.0500 0.4500
v  0.4300 -0.0500 0.5500
v  0.4300 0.0500 0.5500
v  0.4300 0.4300 0.4500
v  0.4300 0.4300 0.5500
v  0.5000 -0.0500 0.5500
v  0.5000 0.0500 0.5500
v  0.5000 0.5000 0.5500
v  0.0500 0.5000 0.4500
v  -0.0500 0.4300 0.4500
v  0.0500 0.4300 0.4500
v  -0.5000 0.5000 0.4500
v  -0.0500 0.5000 0.4500
v  0.0500 0.4300 0.5500
v  -0.0500 0.4300 0.5500
v  -0.4300 0.4300 0.4500
v  -0.4300 0.4300 0.5500
v  0.0500 0.5000 0.5500
v  -0.0500 0.5000 0.5500
v  -0.5000 0.5000 0.5500
v  -0.5000 0.0500 0.4500
v  -0.4300 -0.0500 0.4500
v  -0.4300 0.0500 0.4500
v  -0.5000 -0.0500 0.4500
v  -0.4300 0.0500 0.5500
v  -0.4300 -0.0500 0.5500
v  -0.5000 0.0500 0.5500
v  -0.5000 -0.0500 0.5500
# 104 vertices

vn 0.0000 0.0000 -1.0000
vn 0.0000 0.0000 1.0000
vn 0.0000 -1.0000 0.0000
vn 1.0000 0.0000 0.0000
vn 0.0000 1.0000 0.0000
vn -1.0000 0.0000 0.0000
vn -0.0000 1.0000 0.0000
vn 0.0000 -1.0000 -0.0000
vn -1.0000 -0.0000 -0.0000
vn -1.0000 0.0000 -0.0000
vn -0.0000 1.0000 -0.0000
vn 0.0000 1.0000 -0.0000
vn 1.0000 0.0000 -0.0000
vn -1.0000 -0.0000 0.0000
vn -0.0000 -1.0000 0.0000
# 15 vertex normals

vt 0.9995 0.0005 0.0005
vt 0.9995 0.4501 0.0005
vt 0.5500 0.4500 0.0005
vt 0.5500 0.0005 0.0005
vt 0.5500 0.0704 0.0704
vt 0.5500 0.4500 0.0704
vt 0.4500 0.4500 0.0704
vt 0.4501 0.0704 0.0704
vt 0.4501 0.0005 0.0005
vt 0.4500 0.4500 0.0005
vt 0.0005 0.4500 0.0005
vt 0.0005 0.0005 0.0005
vt 0.9296 0.4501 0.0704
vt 0.9296 0.5500 0.0704
vt 0.5500 0.5500 0.0704
vt 0.4500 0.5500 0.0704
vt 0.0704 0.5499 0.0704
vt 0.0704 0.4500 0.0704
vt 0.9995 0.5500 0.0005
vt 0.9995 0.9995 0.0005
vt 0.5499 0.9995 0.0005
vt 0.5500 0.5500 0.0005
vt 0.5499 0.9296 0.0704
vt 0.4500 0.9296 0.0704
vt 0.4500 0.5500 0.0005
vt 0.4500 0.9995 0.0005
vt 0.0005 0.9995 0.0005
vt 0.0005 0.5499 0.0005
vt 0.0005 0.0005 0.9995
vt 0.4500 0.0005 0.9995
vt 0.4500 0.4500 0.9995
vt 0.0005 0.4501 0.9995
vt 0.4500 0.0704 0.9296
vt 0.5499 0.0704 0.9296
vt 0.5500 0.4500 0.9296
vt 0.4500 0.4500 0.9296
vt 0.5499 0.0005 0.9995
vt 0.9995 0.0005 0.9995
vt 0.9995 0.4500 0.9995
vt 0.5500 0.4500 0.9995
vt 0.0704 0.4501 0.9296
vt 0.4500 0.5500 0.9296
vt 0.0704 0.5500 0.9296
vt 0.5500 0.5500 0.9296
vt 0.9296 0.4500 0.9296
vt 0.9296 0.5499 0.9296
vt 0.0005 0.5500 0.9995
vt 0.4500 0.5500 0.9995
vt 0.4501 0.9995 0.9995
vt 0.0005 0.9995 0.9995
vt 0.5500 0.9296 0.9296
vt 0.4501 0.9296 0.9296
vt 0.5500 0.5500 0.9995
vt 0.9995 0.5499 0.9995
vt 0.9995 0.9995 0.9995
vt 0.5500 0.9995 0.9995
vt 0.4500 0.0005 0.0005
vt 0.4500 0.0704 0.0704
vt 0.5499 0.0704 0.0704
vt 0.5499 0.4500 0.0704
vt 0.5499 0.0005 0.0005
vt 0.9995 0.4500 0.0005
vt 0.5499 0.4500 0.0005
vt 0.0704 0.5500 0.0704
vt 0.5499 0.5500 0.0704
vt 0.9296 0.4500 0.0704
vt 0.0005 0.5500 0.0005
vt 0.5499 0.5500 0.0005
vt 0.0005 0.4500 0.9995
vt 0.5499 0.4500 0.9296
vt 0.5499 0.4500 0.9995
vt 0.0704 0.4500 0.9296
vt 0.5499 0.5500 0.9296
vt 0.9296 0.5500 0.9296
vt 0.4500 0.9995 0.9995
vt 0.5499 0.9296 0.9296
vt 0.4500 0.9296 0.9296
vt 0.5499 0.5500 0.9995
vt 0.9995 0.5500 0.9995
vt 0.5499 0.9995 0.9995
vt 0.5500 0.0005 0.4500
vt 0.9995 0.0005 0.4501
vt 0.9296 0.0704 0.4501
vt 0.5500 0.0704 0.4500
vt 0.9995 0.4500 0.4501
vt 0.9296 0.4500 0.4501
vt 0.0005 0.4501 0.4500
vt 0.0005 0.0005 0.4500
vt 0.0704 0.0704 0.4500
vt 0.0704 0.4501 0.4500
vt 0.4500 0.0005 0.4500
vt 0.4500 0.0704 0.4500
vt 0.0005 0.4500 0.4500
vt 0.0704 0.4500 0.4500
vt 0.5500 0.0005 0.5500
vt 0.9995 0.0005 0.5499
vt 0.9296 0.0704 0.5499
vt 0.5500 0.0704 0.5500
vt 0.9995 0.4500 0.5499
vt 0.9296 0.4500 0.5499
vt 0.5499 0.0005 0.4500
vt 0.9995 0.0005 0.4500
vt 0.9296 0.0704 0.4500
vt 0.5499 0.0704 0.4500
vt 0.9995 0.4500 0.4500
vt 0.9296 0.4500 0.4500
vt 0.0005 0.0005 0.5500
vt 0.4500 0.0005 0.5500
vt 0.4500 0.0704 0.5500
vt 0.0704 0.0704 0.5500
vt 0.4501 0.9995 0.4500
vt 0.0005 0.9995 0.4500
vt 0.0704 0.9296 0.4500
vt 0.4501 0.9296 0.4500
vt 0.0005 0.5500 0.4500
vt 0.0704 0.5500 0.4500
vt 0.0005 0.4500 0.5500
vt 0.0704 0.4500 0.5500
vt 0.9995 0.5499 0.4500
vt 0.9995 0.9995 0.4500
vt 0.9296 0.9296 0.4500
vt 0.9296 0.5499 0.4500
vt 0.5500 0.9995 0.4500
vt 0.5500 0.9296 0.4500
vt 0.4500 0.9995 0.4500
vt 0.4500 0.9296 0.4500
vt 0.9995 0.0005 0.5500
vt 0.9296 0.0704 0.5500
vt 0.9995 0.4501 0.5500
vt 0.9296 0.4501 0.5500
vt 0.9995 0.5500 0.4501
vt 0.9995 0.9995 0.4501
vt 0.9296 0.9296 0.4501
vt 0.9296 0.5500 0.4501
vt 0.9995 0.9995 0.5499
vt 0.5500 0.9995 0.5500
vt 0.5500 0.9296 0.5500
vt 0.9296 0.9296 0.5499
vt 0.4501 0.0005 0.5500
vt 0.4501 0.0704 0.5500
vt 0.9995 0.5500 0.5499
vt 0.9296 0.5500 0.5499
vt 0.4500 0.9995 0.5500
vt 0.0005 0.9995 0.5500
vt 0.0704 0.9296 0.5500
vt 0.4500 0.9296 0.5500
vt 0.0005 0.5500 0.5500
vt 0.0704 0.5500 0.5500
vt 0.9995 0.5500 0.5500
vt 0.9995 0.9995 0.5500
vt 0.9296 0.9296 0.5500
vt 0.9296 0.5500 0.5500
vt 0.5499 0.9995 0.5500
vt 0.0005 0.5499 0.5500
vt 0.0704 0.5499 0.5500
# 155 texture coords

g Box001
s 2
f 1/1/1 2/2/1 3/3/1 
f 3/3/1 4/4/1 1/1/1 
f 5/5/1 6/6/1 7/7/1 
f 7/7/1 8/8/1 5/5/1 
f 9/9/1 10/10/1 11/11/1 
f 11/11/1 12/12/1 9/9/1 
f 13/13/1 14/14/1 15/15/1 
f 15/15/1 6/6/1 13/13/1 
f 6/6/1 15/15/1 16/16/1 
f 16/16/1 7/7/1 6/6/1 
f 7/7/1 16/16/1 17/17/1 
f 17/17/1 18/18/1 7/7/1 
f 19/19/1 20/20/1 21/21/1 
f 21/21/1 22/22/1 19/19/1 
f 15/15/1 23/23/1 24/24/1 
f 24/24/1 16/16/1 15/15/1 
f 25/25/1 26/26/1 27/27/1 
f 27/27/1 28/28/1 25/25/1 
s 4
f 29/29/2 30/30/2 31/31/2 
f 31/31/2 32/32/2 29/29/2 
f 33/33/2 34/34/2 35/35/2 
f 35/35/2 36/36/2 33/33/2 
f 37/37/2 38/38/2 39/39/2 
f 39/39/2 40/40/2 37/37/2 
f 41/41/2 36/36/2 42/42/2 
f 42/42/2 43/43/2 41/41/2 
f 36/36/2 35/35/2 44/44/2 
f 44/44/2 42/42/2 36/36/2 
f 35/35/2 45/45/2 46/46/2 
f 46/46/2 44/44/2 35/35/2 
f 47/47/2 48/48/2 49/49/2 
f 49/49/2 50/50/2 47/47/2 
f 42/42/2 44/44/2 51/51/2 
f 51/51/2 52/52/2 42/42/2 
f 53/53/2 54/54/2 55/55/2 
f 55/55/2 56/56/2 53/53/2 
s 8
f 1/12/3 4/57/3 57/10/3 
f 57/10/3 58/11/3 1/12/3 
f 5/58/3 8/59/3 59/60/3 
f 59/60/3 60/7/3 5/58/3 
f 9/61/3 12/1/3 61/62/3 
f 61/62/3 62/63/3 9/61/3 
f 63/18/3 60/7/3 64/16/3 
f 64/16/3 65/64/3 63/18/3 
f 60/7/3 59/60/3 66/65/3 
f 66/65/3 64/16/3 60/7/3 
f 59/60/3 67/66/3 68/14/3 
f 68/14/3 66/65/3 59/60/3 
f 69/67/3 70/25/3 30/26/3 
f 30/26/3 29/27/3 69/67/3 
f 64/16/3 66/65/3 34/23/3 
f 34/23/3 33/24/3 64/16/3 
f 71/68/3 72/19/3 38/20/3 
f 38/20/3 37/21/3 71/68/3 
s 16
f 12/29/4 11/30/4 73/31/4 
f 73/31/4 61/69/4 12/29/4 
f 18/33/4 17/34/4 74/70/4 
f 74/70/4 75/36/4 18/33/4 
f 28/37/4 27/38/4 76/39/4 
f 76/39/4 77/71/4 28/37/4 
f 67/72/4 75/36/4 78/42/4 
f 78/42/4 68/43/4 67/72/4 
f 75/36/4 74/70/4 79/73/4 
f 79/73/4 78/42/4 75/36/4 
f 74/70/4 80/45/4 81/74/4 
f 81/74/4 79/73/4 74/70/4 
f 72/47/4 82/48/4 39/75/4 
f 39/75/4 38/50/4 72/47/4 
f 78/42/4 79/73/4 46/76/4 
f 46/76/4 45/77/4 78/42/4 
f 83/78/4 84/79/4 55/55/4 
f 55/55/4 54/80/4 83/78/4 
s 32
f 27/29/5 26/30/5 85/31/5 
f 85/31/5 76/69/5 27/29/5 
f 24/33/5 23/34/5 86/35/5 
f 86/35/5 87/36/5 24/33/5 
f 21/37/5 20/38/5 88/39/5 
f 88/39/5 89/71/5 21/37/5 
f 80/72/5 87/36/5 90/42/5 
f 90/42/5 81/43/5 80/72/5 
f 87/36/5 86/35/5 91/44/5 
f 91/44/5 90/42/5 87/36/5 
f 86/35/5 92/45/5 93/74/5 
f 93/74/5 91/44/5 86/35/5 
f 84/47/5 94/48/5 56/75/5 
f 56/75/5 55/50/5 84/47/5 
f 90/42/5 91/44/5 52/76/5 
f 52/76/5 51/77/5 90/42/5 
f 95/78/5 96/79/5 50/55/5 
f 50/55/5 49/80/5 95/78/5 
s 64
f 20/12/6 19/57/6 97/10/6 
f 97/10/6 88/11/6 20/12/6 
f 14/58/6 13/59/6 98/6/6 
f 98/6/6 99/7/6 14/58/6 
f 2/61/6 1/1/6 58/62/6 
f 58/62/6 100/63/6 2/61/6 
f 92/18/6 99/7/6 101/16/6 
f 101/16/6 93/64/6 92/18/6 
f 99/7/6 98/6/6 102/15/6 
f 102/15/6 101/16/6 99/7/6 
f 98/6/6 63/66/6 65/14/6 
f 65/14/6 102/15/6 98/6/6 
f 96/67/6 103/25/6 47/26/6 
f 47/26/6 50/27/6 96/67/6 
f 101/16/6 102/15/6 41/23/6 
f 41/23/6 43/24/6 101/16/6 
f 104/68/6 69/19/6 29/20/6 
f 29/20/6 32/21/6 104/68/6 
s off
f 3/81/5 2/82/5 13/83/5 
f 13/83/5 6/84/5 3/81/5 
f 2/82/5 100/85/5 98/86/5 
f 98/86/7 13/83/7 2/82/7 
f 100/87/2 58/88/2 63/89/2 
f 63/89/2 98/90/2 100/87/2 
f 58/88/2 57/91/2 60/92/2 
f 60/92/2 63/89/2 58/88/2 
f 57/93/4 4/88/4 5/89/4 
f 5/89/4 60/94/4 57/93/4 
f 4/88/4 3/91/4 6/92/4 
f 6/92/4 5/89/4 4/88/4 
f 10/95/6 9/96/6 8/97/6 
f 8/97/6 7/98/6 10/95/6 
f 9/96/6 62/99/6 59/100/6 
f 59/100/6 8/97/6 9/96/6 
f 62/101/2 61/102/2 67/103/2 
f 67/103/2 59/104/2 62/101/2 
f 61/102/2 73/105/2 75/106/2 
f 75/106/2 67/103/2 61/102/2 
f 73/93/5 11/88/5 18/89/5 
f 18/89/5 75/94/5 73/93/5 
f 11/88/5 10/91/5 7/92/5 
f 7/92/5 18/89/5 11/88/5 
f 19/107/3 22/108/3 15/109/3 
f 15/109/3 14/110/3 19/107/3 
f 22/81/4 21/82/4 23/83/4 
f 23/83/4 15/84/4 22/81/4 
f 21/82/4 89/85/4 86/86/4 
f 86/86/4 23/83/4 21/82/4 
f 89/111/2 88/112/2 92/113/2 
f 92/113/2 86/114/2 89/111/2 
f 88/112/2 97/115/2 99/116/2 
f 99/116/2 92/113/2 88/112/2 
f 97/117/8 19/107/8 14/110/8 
f 14/110/8 99/118/8 97/117/8 
f 25/95/3 28/96/3 17/97/3 
f 17/97/3 16/98/3 25/95/3 
f 28/96/3 77/99/3 74/100/3 
f 74/100/3 17/97/3 28/96/3 
f 77/119/2 76/120/2 80/121/2 
f 80/121/2 74/122/2 77/119/2 
f 76/120/2 85/123/2 87/124/2 
f 87/124/2 80/121/2 76/120/2 
f 85/117/9 26/107/9 24/110/9 
f 24/110/10 87/118/10 85/117/10 
f 26/107/6 25/108/6 16/109/6 
f 16/109/6 24/110/6 26/107/6 
f 31/125/4 30/112/4 33/113/4 
f 33/113/4 36/126/4 31/125/4 
f 30/112/4 70/115/4 64/116/4 
f 64/116/4 33/113/4 30/112/4 
f 70/95/1 69/127/1 65/128/1 
f 65/128/1 64/98/1 70/95/1 
f 69/127/1 104/129/1 102/130/1 
f 102/130/1 65/128/1 69/127/1 
f 104/131/11 32/132/11 41/133/11 
f 41/133/12 102/134/12 104/131/12 
f 32/132/5 31/123/5 36/124/5 
f 36/124/5 41/133/5 32/132/5 
f 37/135/6 40/136/6 35/137/6 
f 35/137/6 34/138/6 37/135/6 
f 40/125/5 39/112/5 45/113/5 
f 45/113/5 35/126/5 40/125/5 
f 39/112/5 82/115/5 78/116/5 
f 78/116/12 45/113/12 39/112/12 
f 82/117/1 72/107/1 68/110/1 
f 68/110/1 78/118/1 82/117/1 
f 72/107/1 71/139/1 66/140/1 
f 66/140/1 68/110/1 72/107/1 
f 71/141/6 37/135/6 34/138/6 
f 34/138/6 66/142/6 71/141/6 
f 48/143/8 47/144/8 43/145/8 
f 43/145/8 42/146/8 48/143/8 
f 47/144/3 103/147/3 101/148/3 
f 101/148/3 43/145/3 47/144/3 
f 103/149/1 96/150/1 93/151/1 
f 93/151/1 101/152/1 103/149/1 
f 96/150/1 95/153/1 91/137/1 
f 91/137/1 93/151/1 96/150/1 
f 95/131/13 49/132/13 52/133/13 
f 52/133/13 91/134/13 95/131/13 
f 49/132/4 48/123/4 42/124/4 
f 42/124/4 52/133/4 49/132/4 
f 54/135/8 53/136/8 44/137/8 
f 44/137/8 46/138/8 54/135/8 
f 53/143/6 56/144/6 51/145/6 
f 51/145/6 44/146/6 53/143/6 
f 56/144/6 94/147/6 90/148/6 
f 90/148/14 51/145/14 56/144/14 
f 94/143/1 84/144/1 81/145/1 
f 81/145/1 90/146/1 94/143/1 
f 84/144/1 83/154/1 79/155/1 
f 79/155/1 81/145/1 84/144/1 
f 83/141/15 54/135/15 46/138/15 
f 46/138/3 79/142/3 83/141/3 
# 204 faces

